<svg width="29" height="29" viewBox="0 0 29 29" fill="none" xmlns="http://www.w3.org/2000/svg">
<path d="M14.5001 2.17505C12.0624 2.17505 9.67949 2.8979 7.65265 4.25219C5.62582 5.60648 4.04609 7.53138 3.11324 9.78348C2.18039 12.0356 1.93631 14.5137 2.41188 16.9045C2.88744 19.2954 4.06128 21.4915 5.78496 23.2151C7.50865 24.9388 9.70475 26.1127 12.0956 26.5882C14.4864 27.0638 16.9645 26.8197 19.2166 25.8869C21.4687 24.954 23.3936 23.3743 24.7479 21.3475C26.1022 19.3206 26.8251 16.9377 26.8251 14.5001C26.8264 12.8811 26.5085 11.2778 25.8896 9.7819C25.2707 8.28596 24.3629 6.92673 23.2181 5.78198C22.0734 4.63724 20.7141 3.72944 19.2182 3.11052C17.7223 2.4916 16.119 2.17372 14.5001 2.17505ZM14.5001 23.9251C12.636 23.9251 10.8137 23.3723 9.2638 22.3367C7.71387 21.301 6.50585 19.829 5.79249 18.1068C5.07913 16.3847 4.89249 14.4896 5.25615 12.6613C5.61982 10.8331 6.51746 9.15368 7.83557 7.83557C9.15368 6.51746 10.8331 5.61982 12.6613 5.25615C14.4896 4.89249 16.3847 5.07913 18.1068 5.79249C19.829 6.50584 21.301 7.71387 22.3367 9.2638C23.3723 10.8137 23.9251 12.636 23.9251 14.5001C23.9275 15.7385 23.6854 16.9652 23.2127 18.1098C22.7399 19.2544 22.0458 20.2944 21.1701 21.1701C20.2944 22.0458 19.2544 22.7399 18.1098 23.2127C16.9652 23.6854 15.7385 23.9275 14.5001 23.9251ZM18.1251 10.6576L13.9201 15.7326L11.0201 13.6301C10.3676 13.1226 9.49755 13.2676 8.99005 13.9201C8.48255 14.5726 8.62755 15.4426 9.28005 15.9501C10.1501 16.6026 11.0926 17.2551 11.9626 17.9076C12.6151 18.3426 13.1951 18.9951 13.9926 19.0676C14.2101 19.0676 14.5001 19.0676 14.7176 18.9226L15.1526 18.4876L18.4151 14.5726C18.9951 13.8476 19.5751 13.1951 20.1551 12.4701C20.5901 11.8901 20.7351 11.1651 20.2276 10.5851L20.0101 10.3676C19.5026 10.0051 18.6326 10.0776 18.1251 10.6576Z" fill="#39C540"/>
</svg>
