<svg width="29" height="29" viewBox="0 0 29 29" fill="none" xmlns="http://www.w3.org/2000/svg">
<path d="M14.325 3C11.8874 3 9.50444 3.72285 7.4776 5.07714C5.45077 6.43143 3.87104 8.35633 2.93819 10.6084C2.00534 12.8605 1.76126 15.3387 2.23683 17.7295C2.71239 20.1203 3.88623 22.3164 5.60991 24.0401C7.3336 25.7638 9.5297 26.9376 11.9205 27.4132C14.3113 27.8887 16.7895 27.6447 19.0416 26.7118C21.2937 25.779 23.2186 24.1992 24.5729 22.1724C25.9272 20.1456 26.65 17.7627 26.65 15.325C26.6513 13.7061 26.3335 12.1028 25.7145 10.6069C25.0956 9.11091 24.1878 7.75168 23.0431 6.60694C21.8983 5.46219 20.5391 4.55439 19.0432 3.93547C17.5472 3.31655 15.9439 2.99867 14.325 3ZM14.325 24.75C12.4609 24.75 10.6387 24.1972 9.08876 23.1616C7.53882 22.126 6.3308 20.654 5.61744 18.9318C4.90408 17.2096 4.71744 15.3145 5.0811 13.4863C5.44477 11.658 6.34241 9.97863 7.66052 8.66052C8.97863 7.34241 10.658 6.44477 12.4863 6.0811C14.3146 5.71744 16.2096 5.90408 17.9318 6.61744C19.654 7.3308 21.126 8.53882 22.1616 10.0888C23.1972 11.6387 23.75 13.4609 23.75 15.325C23.7525 16.5634 23.5104 17.7901 23.0376 18.9347C22.5649 20.0793 21.8707 21.1193 20.995 21.995C20.1193 22.8707 19.0793 23.5649 17.9347 24.0376C16.7901 24.5104 15.5634 24.7525 14.325 24.75Z" fill="#FF4E44"/>
<path d="M18.6325 10.73C18.5016 10.5926 18.3441 10.4832 18.1696 10.4085C17.9952 10.3338 17.8073 10.2952 17.6175 10.2952C17.4277 10.2952 17.2399 10.3338 17.0654 10.4085C16.891 10.4832 16.7335 10.5926 16.6025 10.73L14.5 12.8325L12.47 10.8025C12.1999 10.5378 11.8362 10.3904 11.458 10.3923C11.0798 10.3942 10.7177 10.5453 10.4502 10.8127C10.1828 11.0801 10.0317 11.4423 10.0298 11.8205C10.0279 12.1987 10.1753 12.5624 10.44 12.8325L12.47 14.8625L10.44 16.8925C10.1753 17.1626 10.0279 17.5263 10.0298 17.9045C10.0317 18.2827 10.1828 18.6449 10.4502 18.9123C10.7177 19.1797 11.0798 19.3308 11.458 19.3327C11.8362 19.3346 12.1999 19.1872 12.47 18.9225L14.5 16.8925L16.53 18.9225C16.8002 19.1872 17.1638 19.3346 17.542 19.3327C17.9202 19.3308 18.2824 19.1797 18.5498 18.9123C18.8173 18.6449 18.9684 18.2827 18.9703 17.9045C18.9722 17.5263 18.8247 17.1626 18.56 16.8925L16.53 14.8625L18.56 12.8325C18.8319 12.5541 18.99 12.1842 19.0034 11.7953C19.0168 11.4064 18.8846 11.0265 18.6325 10.73Z" fill="#FF4E44"/>
</svg>
